<?xml version="1.0" encoding="UTF-8" standalone="no"?>
<!-- Created with Inkscape (http://www.inkscape.org/) -->

<svg
   width="198.35651mm"
   height="199.02603mm"
   viewBox="0 0 198.3565 199.02603"
   version="1.1"
   id="svg929"
   inkscape:version="1.1.2 (0a00cf5339, 2022-02-04)"
   sodipodi:docname="pomootskey.svg"
   inkscape:export-filename="/home/work/PycharmProjects/pomootskey/public/icons/icon-64x64.png"
   inkscape:export-xdpi="8.1677761"
   inkscape:export-ydpi="8.1677761"
   xmlns:inkscape="http://www.inkscape.org/namespaces/inkscape"
   xmlns:sodipodi="http://sodipodi.sourceforge.net/DTD/sodipodi-0.dtd"
   xmlns="http://www.w3.org/2000/svg"
   xmlns:svg="http://www.w3.org/2000/svg">
  <sodipodi:namedview
     id="namedview931"
     pagecolor="#ffffff"
     bordercolor="#666666"
     borderopacity="1.0"
     inkscape:pageshadow="2"
     inkscape:pageopacity="0.0"
     inkscape:pagecheckerboard="0"
     inkscape:document-units="mm"
     showgrid="false"
     inkscape:zoom="0.64052329"
     inkscape:cx="236.52536"
     inkscape:cy="469.92827"
     inkscape:window-width="1920"
     inkscape:window-height="1043"
     inkscape:window-x="2160"
     inkscape:window-y="0"
     inkscape:window-maximized="1"
     inkscape:current-layer="text5647" />
  <defs
     id="defs926">
    <rect
       x="166.0599"
       y="163.86901"
       width="1057.1385"
       height="935.28332"
       id="rect5649" />
    <marker
       style="overflow:visible"
       id="SquareS"
       refX="0"
       refY="0"
       orient="auto"
       inkscape:stockid="SquareS"
       inkscape:isstock="true">
      <path
         transform="scale(0.2)"
         style="fill:context-stroke;fill-rule:evenodd;stroke:context-stroke;stroke-width:1pt"
         d="M -5,-5 V 5 H 5 V -5 Z"
         id="path21818" />
    </marker>
    <marker
       style="overflow:visible"
       id="SquareL"
       refX="0"
       refY="0"
       orient="auto"
       inkscape:stockid="SquareL"
       inkscape:isstock="true">
      <path
         transform="scale(0.8)"
         style="fill:context-stroke;fill-rule:evenodd;stroke:context-stroke;stroke-width:1pt"
         d="M -5,-5 V 5 H 5 V -5 Z"
         id="path21812" />
    </marker>
    <marker
       style="overflow:visible"
       id="DotM"
       refX="0"
       refY="0"
       orient="auto"
       inkscape:stockid="DotM"
       inkscape:isstock="true">
      <path
         transform="matrix(0.4,0,0,0.4,2.96,0.4)"
         style="fill:context-stroke;fill-rule:evenodd;stroke:context-stroke;stroke-width:1pt"
         d="m -2.5,-1 c 0,2.76 -2.24,5 -5,5 -2.76,0 -5,-2.24 -5,-5 0,-2.76 2.24,-5 5,-5 2.76,0 5,2.24 5,5 z"
         id="path21806" />
    </marker>
    <marker
       style="overflow:visible"
       id="Arrow1Lstart"
       refX="0"
       refY="0"
       orient="auto"
       inkscape:stockid="Arrow1Lstart"
       inkscape:isstock="true">
      <path
         transform="matrix(0.8,0,0,0.8,10,0)"
         style="fill:context-stroke;fill-rule:evenodd;stroke:context-stroke;stroke-width:1pt"
         d="M 0,0 5,-5 -12.5,0 5,5 Z"
         id="path21742" />
    </marker>
    <marker
       style="overflow:visible"
       id="DotL"
       refX="0"
       refY="0"
       orient="auto"
       inkscape:stockid="DotL"
       inkscape:isstock="true">
      <path
         transform="matrix(0.8,0,0,0.8,5.92,0.8)"
         style="fill:context-stroke;fill-rule:evenodd;stroke:context-stroke;stroke-width:1pt"
         d="m -2.5,-1 c 0,2.76 -2.24,5 -5,5 -2.76,0 -5,-2.24 -5,-5 0,-2.76 2.24,-5 5,-5 2.76,0 5,2.24 5,5 z"
         id="path21803" />
    </marker>
    <marker
       style="overflow:visible"
       id="DiamondLend"
       refX="0"
       refY="0"
       orient="auto"
       inkscape:stockid="DiamondLend"
       inkscape:isstock="true">
      <path
         transform="matrix(0.8,0,0,0.8,-5.6,0)"
         style="fill:context-stroke;fill-rule:evenodd;stroke:context-stroke;stroke-width:1pt"
         d="M 0,-7.0710768 -7.0710894,0 0,7.0710589 7.0710462,0 Z"
         id="path21839" />
    </marker>
    <rect
       x="198.28224"
       y="232.51953"
       width="417.73859"
       height="273.02676"
       id="rect5670" />
    <rect
       x="198.28224"
       y="232.51953"
       width="417.73859"
       height="273.02676"
       id="rect5670-6" />
  </defs>
  <g
     inkscape:label="Layer 1"
     inkscape:groupmode="layer"
     id="layer1"
     transform="translate(23.655125,22.968602)">
    <ellipse
       style="fill:none;stroke:#33b5e1;stroke-width:12.335;stroke-miterlimit:4;stroke-dasharray:none;stroke-opacity:1"
       id="path1012-5"
       cx="75.523125"
       cy="76.544411"
       rx="93.01075"
       ry="93.345512" />
    <g
       aria-label="P"
       transform="matrix(0.26458333,0,0,0.26458333,-7.7837033,-38.442708)"
       id="text5647"
       style="font-size:533.333px;line-height:1.25;font-family:Norasi;-inkscape-font-specification:Norasi;letter-spacing:0px;word-spacing:0px;white-space:pre;shape-inside:url(#rect5649);fill:#33b5e1;stroke:#33b5e1">
      <path
         d="m 273.79381,455.93031 v 97.59994 q 0,28.26665 9.06667,37.33331 9.59999,9.06666 41.06664,10.13333 v 10.13332 H 174.59387 v -10.13332 q 30.39999,-2.66667 37.33332,-11.2 7.46666,-9.06666 7.46666,-42.66664 V 315.66373 q 0,-28.26665 -8,-36.26665 -7.46666,-8.53333 -36.79998,-11.19999 v -10.13333 h 140.79992 q 37.86664,0 69.86662,10.66666 31.99998,10.13333 47.99997,27.73332 21.86666,22.39999 21.86666,58.66663 0,26.13332 -13.86666,49.06664 -13.33333,22.39998 -36.79998,35.19997 -30.93331,17.59999 -93.86661,17.59999 -22.39998,0 -36.79998,-1.06666 z m 0,-160.53324 v 139.19992 q 4.8,0 14.4,1.06666 10.13332,0.53334 15.99999,0.53334 93.33327,0 93.33327,-78.39996 0,-41.59997 -25.59998,-60.79996 -25.59999,-19.19999 -79.99995,-19.19999 -10.66666,0 -14.39999,3.73333 -3.73334,3.2 -3.73334,13.86666 z"
         id="path6541" />
    </g>
  </g>
</svg>
