<?xml version="1.0" encoding="UTF-8" standalone="no"?>
<!-- Created with Inkscape (http://www.inkscape.org/) -->

<svg
   width="198.35651mm"
   height="199.02603mm"
   viewBox="0 0 198.3565 199.02603"
   version="1.1"
   id="svg929"
   inkscape:version="1.1.2 (0a00cf5339, 2022-02-04)"
   sodipodi:docname="pomootskey.svg"
   inkscape:export-filename="/home/work/PycharmProjects/pomootskey/public/icons/icon-64x64.png"
   inkscape:export-xdpi="8.1677761"
   inkscape:export-ydpi="8.1677761"
   xmlns:inkscape="http://www.inkscape.org/namespaces/inkscape"
   xmlns:sodipodi="http://sodipodi.sourceforge.net/DTD/sodipodi-0.dtd"
   xmlns="http://www.w3.org/2000/svg"
   xmlns:svg="http://www.w3.org/2000/svg">
  <sodipodi:namedview
     id="namedview931"
     pagecolor="#ffffff"
     bordercolor="#666666"
     borderopacity="1.0"
     inkscape:pageshadow="2"
     inkscape:pageopacity="0.0"
     inkscape:pagecheckerboard="0"
     inkscape:document-units="mm"
     showgrid="false"
     inkscape:zoom="0.64052329"
     inkscape:cx="236.52536"
     inkscape:cy="469.92827"
     inkscape:window-width="1920"
     inkscape:window-height="1043"
     inkscape:window-x="2160"
     inkscape:window-y="0"
     inkscape:window-maximized="1"
     inkscape:current-layer="layer1" />
  <defs
     id="defs926">
    <rect
       x="166.0599"
       y="163.86901"
       width="1057.1385"
       height="935.28332"
       id="rect5649" />
    <marker
       style="overflow:visible"
       id="SquareS"
       refX="0"
       refY="0"
       orient="auto"
       inkscape:stockid="SquareS"
       inkscape:isstock="true">
      <path
         transform="scale(0.2)"
         style="fill:context-stroke;fill-rule:evenodd;stroke:context-stroke;stroke-width:1pt"
         d="M -5,-5 V 5 H 5 V -5 Z"
         id="path21818" />
    </marker>
    <marker
       style="overflow:visible"
       id="SquareL"
       refX="0"
       refY="0"
       orient="auto"
       inkscape:stockid="SquareL"
       inkscape:isstock="true">
      <path
         transform="scale(0.8)"
         style="fill:context-stroke;fill-rule:evenodd;stroke:context-stroke;stroke-width:1pt"
         d="M -5,-5 V 5 H 5 V -5 Z"
         id="path21812" />
    </marker>
    <marker
       style="overflow:visible"
       id="DotM"
       refX="0"
       refY="0"
       orient="auto"
       inkscape:stockid="DotM"
       inkscape:isstock="true">
      <path
         transform="matrix(0.4,0,0,0.4,2.96,0.4)"
         style="fill:context-stroke;fill-rule:evenodd;stroke:context-stroke;stroke-width:1pt"
         d="m -2.5,-1 c 0,2.76 -2.24,5 -5,5 -2.76,0 -5,-2.24 -5,-5 0,-2.76 2.24,-5 5,-5 2.76,0 5,2.24 5,5 z"
         id="path21806" />
    </marker>
    <marker
       style="overflow:visible"
       id="Arrow1Lstart"
       refX="0"
       refY="0"
       orient="auto"
       inkscape:stockid="Arrow1Lstart"
       inkscape:isstock="true">
      <path
         transform="matrix(0.8,0,0,0.8,10,0)"
         style="fill:context-stroke;fill-rule:evenodd;stroke:context-stroke;stroke-width:1pt"
         d="M 0,0 5,-5 -12.5,0 5,5 Z"
         id="path21742" />
    </marker>
    <marker
       style="overflow:visible"
       id="DotL"
       refX="0"
       refY="0"
       orient="auto"
       inkscape:stockid="DotL"
       inkscape:isstock="true">
      <path
         transform="matrix(0.8,0,0,0.8,5.92,0.8)"
         style="fill:context-stroke;fill-rule:evenodd;stroke:context-stroke;stroke-width:1pt"
         d="m -2.5,-1 c 0,2.76 -2.24,5 -5,5 -2.76,0 -5,-2.24 -5,-5 0,-2.76 2.24,-5 5,-5 2.76,0 5,2.24 5,5 z"
         id="path21803" />
    </marker>
    <marker
       style="overflow:visible"
       id="DiamondLend"
       refX="0"
       refY="0"
       orient="auto"
       inkscape:stockid="DiamondLend"
       inkscape:isstock="true">
      <path
         transform="matrix(0.8,0,0,0.8,-5.6,0)"
         style="fill:context-stroke;fill-rule:evenodd;stroke:context-stroke;stroke-width:1pt"
         d="M 0,-7.0710768 -7.0710894,0 0,7.0710589 7.0710462,0 Z"
         id="path21839" />
    </marker>
    <rect
       x="198.28224"
       y="232.51953"
       width="417.73859"
       height="273.02676"
       id="rect5670" />
    <rect
       x="198.28224"
       y="232.51953"
       width="417.73859"
       height="273.02676"
       id="rect5670-6" />
  </defs>
  <g
     inkscape:label="Layer 1"
     inkscape:groupmode="layer"
     id="layer1"
     transform="translate(23.655125,22.968602)">
    <ellipse
       style="fill:none;stroke:#33b5e1;stroke-width:12.335;stroke-miterlimit:4;stroke-dasharray:none;stroke-opacity:1"
       id="path1012-5"
       cx="75.523125"
       cy="76.544411"
       rx="93.01075"
       ry="93.345512" />
    <text
       xml:space="preserve"
       transform="matrix(0.26458333,0,0,0.26458333,-7.7837033,-38.442708)"
       id="text5647"
       style="font-style:normal;font-variant:normal;font-weight:normal;font-stretch:normal;font-size:533.333px;line-height:1.25;font-family:Norasi;-inkscape-font-specification:Norasi;letter-spacing:0px;word-spacing:0px;white-space:pre;shape-inside:url(#rect5649);stroke:#33b5e1;stroke-opacity:1;fill:#33b5e1;fill-opacity:1"><tspan
         x="166.06055"
         y="611.13021"
         id="tspan30862">P</tspan></text>
  </g>
</svg>
