<?xml version="1.0" encoding="UTF-8" standalone="no"?>
<!-- Created with Inkscape (http://www.inkscape.org/) -->

<svg
   width="198.35651mm"
   height="199.02603mm"
   viewBox="0 0 198.3565 199.02603"
   version="1.1"
   id="svg929"
   inkscape:version="1.1.2 (0a00cf5339, 2022-02-04)"
   sodipodi:docname="reference.svg"
   inkscape:export-filename="/home/work/PycharmProjects/pomootskey/public/icons/icon-64x64.png"
   inkscape:export-xdpi="8.1677761"
   inkscape:export-ydpi="8.1677761"
   xmlns:inkscape="http://www.inkscape.org/namespaces/inkscape"
   xmlns:sodipodi="http://sodipodi.sourceforge.net/DTD/sodipodi-0.dtd"
   xmlns="http://www.w3.org/2000/svg"
   xmlns:svg="http://www.w3.org/2000/svg">
  <sodipodi:namedview
     id="namedview931"
     pagecolor="#ffffff"
     bordercolor="#666666"
     borderopacity="1.0"
     inkscape:pageshadow="2"
     inkscape:pageopacity="0.0"
     inkscape:pagecheckerboard="0"
     inkscape:document-units="mm"
     showgrid="false"
     inkscape:zoom="1"
     inkscape:cx="236.5"
     inkscape:cy="470.5"
     inkscape:window-width="2160"
     inkscape:window-height="3690"
     inkscape:window-x="0"
     inkscape:window-y="27"
     inkscape:window-maximized="1"
     inkscape:current-layer="layer1" />
  <defs
     id="defs926">
    <rect
       x="98.108032"
       y="242.74622"
       width="563.17419"
       height="241.61072"
       id="rect12827" />
    <rect
       x="114.43214"
       y="262.48451"
       width="535.82145"
       height="205.10497"
       id="rect7211" />
    <rect
       x="166.0599"
       y="163.86901"
       width="1057.1385"
       height="935.28332"
       id="rect5649" />
    <marker
       style="overflow:visible"
       id="SquareS"
       refX="0"
       refY="0"
       orient="auto"
       inkscape:stockid="SquareS"
       inkscape:isstock="true">
      <path
         transform="scale(0.2)"
         style="fill:context-stroke;fill-rule:evenodd;stroke:context-stroke;stroke-width:1pt"
         d="M -5,-5 V 5 H 5 V -5 Z"
         id="path21818" />
    </marker>
    <marker
       style="overflow:visible"
       id="SquareL"
       refX="0"
       refY="0"
       orient="auto"
       inkscape:stockid="SquareL"
       inkscape:isstock="true">
      <path
         transform="scale(0.8)"
         style="fill:context-stroke;fill-rule:evenodd;stroke:context-stroke;stroke-width:1pt"
         d="M -5,-5 V 5 H 5 V -5 Z"
         id="path21812" />
    </marker>
    <marker
       style="overflow:visible"
       id="DotM"
       refX="0"
       refY="0"
       orient="auto"
       inkscape:stockid="DotM"
       inkscape:isstock="true">
      <path
         transform="matrix(0.4,0,0,0.4,2.96,0.4)"
         style="fill:context-stroke;fill-rule:evenodd;stroke:context-stroke;stroke-width:1pt"
         d="m -2.5,-1 c 0,2.76 -2.24,5 -5,5 -2.76,0 -5,-2.24 -5,-5 0,-2.76 2.24,-5 5,-5 2.76,0 5,2.24 5,5 z"
         id="path21806" />
    </marker>
    <marker
       style="overflow:visible"
       id="Arrow1Lstart"
       refX="0"
       refY="0"
       orient="auto"
       inkscape:stockid="Arrow1Lstart"
       inkscape:isstock="true">
      <path
         transform="matrix(0.8,0,0,0.8,10,0)"
         style="fill:context-stroke;fill-rule:evenodd;stroke:context-stroke;stroke-width:1pt"
         d="M 0,0 5,-5 -12.5,0 5,5 Z"
         id="path21742" />
    </marker>
    <marker
       style="overflow:visible"
       id="DotL"
       refX="0"
       refY="0"
       orient="auto"
       inkscape:stockid="DotL"
       inkscape:isstock="true">
      <path
         transform="matrix(0.8,0,0,0.8,5.92,0.8)"
         style="fill:context-stroke;fill-rule:evenodd;stroke:context-stroke;stroke-width:1pt"
         d="m -2.5,-1 c 0,2.76 -2.24,5 -5,5 -2.76,0 -5,-2.24 -5,-5 0,-2.76 2.24,-5 5,-5 2.76,0 5,2.24 5,5 z"
         id="path21803" />
    </marker>
    <marker
       style="overflow:visible"
       id="DiamondLend"
       refX="0"
       refY="0"
       orient="auto"
       inkscape:stockid="DiamondLend"
       inkscape:isstock="true">
      <path
         transform="matrix(0.8,0,0,0.8,-5.6,0)"
         style="fill:context-stroke;fill-rule:evenodd;stroke:context-stroke;stroke-width:1pt"
         d="M 0,-7.0710768 -7.0710894,0 0,7.0710589 7.0710462,0 Z"
         id="path21839" />
    </marker>
    <rect
       x="198.28224"
       y="232.51953"
       width="417.73859"
       height="273.02676"
       id="rect5670" />
    <rect
       x="198.28224"
       y="232.51953"
       width="417.73859"
       height="273.02676"
       id="rect5670-6" />
    <rect
       x="22.679893"
       y="59.598831"
       width="144.87143"
       height="66.702332"
       id="rect3465" />
  </defs>
  <g
     inkscape:label="Layer 1"
     inkscape:groupmode="layer"
     id="layer1"
     transform="translate(23.655125,22.968602)">
    <ellipse
       style="fill:none;stroke:#33b5e1;stroke-width:12.335;stroke-miterlimit:4;stroke-dasharray:none;stroke-opacity:1"
       id="path1012-5"
       cx="75.523125"
       cy="76.544411"
       rx="93.01075"
       ry="93.345512" />
    <text
       xml:space="preserve"
       transform="matrix(0.26458333,0,0,0.26458333,-23.655125,-22.968602)"
       id="text7209"
       style="font-family:sans-serif;font-size:96.00000121px;line-height:1.25;letter-spacing:0px;word-spacing:0px;white-space:pre;shape-inside:url(#rect7211)" />
    <g
       aria-label="● ‒ /"
       transform="matrix(0.17501624,0,0,0.18318369,39.625889,46.680431)"
       id="text5668"
       style="font-size:131.184px;line-height:1.25;letter-spacing:0px;word-spacing:0px;white-space:pre;shape-inside:url(#rect5670);stroke-width:3.64724">
      <path
         d="m 212.11902,339.68303 q -6.66169,-11.65796 -6.66169,-25.04539 0,-13.38743 6.66169,-24.98133 6.72574,-11.65795 18.31964,-18.38369 11.65795,-6.72574 25.04538,-6.72574 13.45149,0 25.04539,6.72574 11.65795,6.72574 18.31964,18.38369 6.72574,11.5939 6.72574,24.98133 0,13.38743 -6.72574,25.04539 -6.66169,11.5939 -18.31964,18.31964 -11.5939,6.72574 -25.04539,6.72574 -13.38743,0 -25.04538,-6.72574 -11.5939,-6.72574 -18.31964,-18.31964 z"
         style="font-weight:bold;-inkscape-font-specification:'sans-serif Bold';fill:#33b5e1"
         id="path42348" />
      <path
         d="m 365.46594,304.38889 h 77.1859 V 320.915 h -77.1859 z"
         style="font-weight:bold;-inkscape-font-specification:'sans-serif Bold';fill:#33b5e1"
         id="path42350" />
      <path
         d="m 529.0616,252.95298 h 14.22014 l -33.75682,107.80404 h -14.15608 z"
         style="font-weight:bold;-inkscape-font-specification:'sans-serif Bold';fill:#33b5e1"
         id="path42352" />
    </g>
    <g
       aria-label="● ‒ /"
       transform="matrix(0.37584313,0,0,0.39338253,-151.9834,192.46262)"
       id="text5668-6"
       style="font-size:131.184px;line-height:1.25;letter-spacing:0px;word-spacing:0px;white-space:pre;shape-inside:url(#rect5670);fill:#34b4e0;fill-opacity:1;stroke:#33b5e1;stroke-width:3.64424;stroke-miterlimit:4;stroke-dasharray:none;stroke-opacity:1">
      <text
         xml:space="preserve"
         transform="matrix(2.5164441,0,0,2.4042456,439.33765,-585.81204)"
         id="text3463"
         style="font-style:normal;font-variant:normal;font-weight:normal;font-stretch:normal;font-size:48px;line-height:1.25;font-family:'DejaVu Sans Mono';-inkscape-font-specification:'DejaVu Sans Mono';letter-spacing:0px;word-spacing:0px;white-space:pre;shape-inside:url(#rect3465);fill:#34b4e0;fill-opacity:1;stroke:#33b5e1;stroke-width:1.48157;stroke-miterlimit:4;stroke-dasharray:none;stroke-opacity:1"><tspan
           x="22.679688"
           y="102.06836"
           id="tspan26237"><tspan
             style="font-family:'DejaVu Sans';-inkscape-font-specification:'DejaVu Sans'"
             id="tspan26235">1 A</tspan></tspan></text>
    </g>
    <circle
       style="fill:none;fill-opacity:1;stroke:#33b5e1;stroke-width:1.53123"
       id="path15107"
       cx="29.639954"
       cy="85.919128"
       r="4.0116162" />
    <circle
       style="fill:#33b5e1;fill-opacity:1;stroke:#33b5e1;stroke-width:1.53123"
       id="path15107-3"
       cx="46.334938"
       cy="85.919128"
       r="4.0116162" />
    <circle
       style="fill:none;fill-opacity:1;stroke:#33b5e1;stroke-width:1.53123"
       id="path15107-35"
       cx="29.639954"
       cy="121.81974"
       r="4.0116162" />
    <circle
       style="fill:none;fill-opacity:1;stroke:#33b5e1;stroke-width:1.53123"
       id="path15107-3-6"
       cx="46.334938"
       cy="121.81974"
       r="4.0116162" />
    <circle
       style="fill:#33b5e1;fill-opacity:1;stroke:#33b5e1;stroke-width:1.53123"
       id="path15107-6"
       cx="29.639954"
       cy="103.86943"
       r="4.0116162" />
    <circle
       style="fill:none;fill-opacity:1;stroke:#33b5e1;stroke-width:1.53123"
       id="path15107-3-7"
       cx="46.334938"
       cy="103.86943"
       r="4.0116162" />
  </g>
</svg>
