<?xml version="1.0" standalone="no"?>
<!DOCTYPE svg PUBLIC "-//W3C//DTD SVG 20010904//EN"
 "http://www.w3.org/TR/2001/REC-SVG-20010904/DTD/svg10.dtd">
<svg version="1.0" xmlns="http://www.w3.org/2000/svg"
 width="752.000000pt" height="752.000000pt" viewBox="0 0 752.000000 752.000000"
 preserveAspectRatio="xMidYMid meet">
<metadata>
Created by potrace 1.14, written by Peter Selinger 2001-2017
</metadata>
<g transform="translate(0.000000,752.000000) scale(0.100000,-0.100000)"
fill="#000000" stroke="none">
<path d="M3538 7515 c-1 -1 -43 -6 -92 -9 -48 -3 -98 -8 -110 -11 -11 -2 -46
-7 -76 -10 -30 -4 -66 -8 -80 -10 -34 -4 -178 -31 -190 -35 -3 -1 -9 -3 -15
-4 -38 -6 -214 -49 -230 -56 -11 -5 -58 -20 -105 -33 -123 -36 -251 -85 -410
-155 -19 -9 -37 -16 -40 -17 -13 -3 -175 -87 -187 -97 -7 -6 -13 -7 -13 -2 0
5 -4 5 -8 -1 -7 -10 -17 -16 -110 -67 -58 -31 -315 -200 -342 -224 -8 -8 -44
-36 -80 -64 -309 -240 -600 -554 -814 -880 -115 -175 -255 -433 -315 -580 -12
-30 -26 -64 -31 -75 -66 -144 -190 -557 -206 -690 -1 -11 -3 -21 -4 -22 -3 -3
-4 -7 -13 -53 -4 -19 -9 -55 -12 -80 -3 -25 -7 -56 -10 -70 -24 -159 -29 -236
-29 -490 -1 -206 7 -398 19 -459 3 -18 6 -36 21 -146 9 -67 12 -85 23 -133 6
-26 13 -58 16 -72 9 -46 25 -115 34 -150 5 -19 17 -64 27 -100 9 -36 23 -77
31 -92 7 -16 12 -28 9 -28 -7 0 39 -127 94 -260 28 -69 57 -138 63 -155 7 -16
15 -34 18 -40 4 -5 37 -68 74 -140 37 -71 80 -149 96 -172 16 -23 29 -44 29
-48 0 -3 37 -60 83 -127 45 -66 87 -128 92 -137 6 -9 18 -22 27 -29 10 -7 18
-18 18 -23 0 -6 6 -16 12 -24 7 -7 29 -32 48 -56 180 -224 525 -554 685 -655
17 -10 32 -21 35 -24 17 -19 294 -200 306 -200 2 0 22 -11 43 -24 57 -36 346
-180 363 -181 3 0 10 -3 14 -7 4 -5 16 -8 26 -8 10 0 18 -5 18 -12 0 -6 3 -8
7 -5 3 4 11 3 17 -1 6 -5 34 -16 61 -26 28 -10 59 -21 70 -26 32 -13 208 -70
230 -75 11 -2 35 -8 53 -14 17 -5 32 -7 32 -4 0 3 6 0 13 -6 8 -6 30 -12 50
-13 20 -2 37 -6 37 -9 0 -4 17 -9 38 -12 20 -2 51 -8 67 -11 81 -17 167 -32
250 -42 22 -3 49 -7 61 -9 90 -19 590 -27 754 -12 85 8 189 21 265 34 22 4 52
7 68 7 15 1 27 4 27 9 0 4 3 6 8 5 12 -3 92 12 172 33 41 11 89 22 105 25 17
3 38 10 48 15 9 5 17 7 17 5 0 -11 414 137 435 156 5 4 15 8 22 8 22 0 321
151 357 180 10 8 19 13 20 11 0 -3 27 12 59 32 31 20 59 37 62 37 11 0 247
166 326 230 31 25 74 59 95 77 134 107 384 360 476 479 12 16 30 36 40 45 10
9 18 21 18 27 0 6 4 12 9 14 14 5 164 218 234 332 75 122 72 117 122 213 22
43 42 80 45 83 9 8 105 227 143 325 65 165 120 342 154 490 7 33 16 69 18 80
3 11 8 35 11 54 3 18 8 43 10 55 2 11 7 37 10 56 3 19 7 42 9 50 2 8 7 42 11
75 3 33 8 62 9 65 2 3 7 55 12 115 14 195 8 660 -11 761 -4 20 -12 72 -21 139
-12 87 -29 178 -49 260 -24 99 -49 196 -62 232 -7 23 -16 52 -18 65 -5 22 -38
119 -56 163 -45 112 -60 151 -60 158 0 15 -187 391 -214 430 -14 21 -26 40
-26 43 0 6 -163 257 -180 277 -5 6 -31 39 -55 72 -63 83 -97 125 -120 151 -11
12 -45 50 -75 85 -95 109 -255 264 -374 364 -27 22 -57 47 -67 56 -10 8 -30
24 -44 35 -15 10 -54 40 -87 67 -33 26 -64 47 -67 47 -4 0 -16 8 -27 18 -10
10 -35 27 -54 38 -19 10 -40 24 -46 29 -6 6 -27 19 -47 30 -20 11 -37 23 -37
27 0 5 -6 8 -14 8 -7 0 -25 9 -40 21 -14 11 -26 18 -26 15 0 -3 -16 6 -36 19
-20 14 -43 25 -50 25 -7 0 -14 3 -16 8 -8 19 -446 215 -509 227 -8 2 -32 10
-52 19 -21 8 -39 15 -42 16 -3 0 -10 3 -17 5 -7 2 -44 13 -83 24 -38 11 -85
24 -102 30 -18 5 -33 8 -33 6 0 -2 -18 2 -41 10 -22 8 -43 14 -47 13 -4 -1
-41 6 -82 15 -41 9 -91 19 -110 22 -19 2 -46 7 -60 10 -25 5 -41 7 -150 20
-30 4 -73 9 -95 11 -47 6 -552 14 -557 9z m427 -469 c128 -8 240 -20 295 -30
14 -3 41 -7 60 -10 87 -14 279 -59 351 -82 25 -8 54 -16 65 -19 23 -4 210 -71
239 -85 11 -5 45 -19 75 -31 83 -34 292 -139 314 -158 10 -9 19 -14 20 -12 4
10 293 -178 332 -216 7 -7 16 -13 19 -13 6 0 80 -58 121 -95 6 -5 40 -35 75
-65 108 -94 274 -266 371 -385 64 -78 128 -165 128 -174 0 -5 4 -11 9 -13 17
-6 169 -250 220 -353 8 -16 19 -33 25 -37 6 -4 7 -8 3 -8 -4 0 3 -19 16 -42
78 -141 219 -532 252 -696 1 -9 10 -51 19 -92 15 -73 23 -118 31 -170 2 -14 7
-45 11 -70 4 -25 8 -61 10 -80 1 -19 5 -80 9 -135 12 -162 7 -437 -10 -565 -3
-19 -7 -55 -11 -80 -3 -25 -7 -56 -10 -70 -2 -14 -6 -38 -8 -55 -4 -32 -13
-76 -21 -112 -3 -13 -7 -33 -10 -45 -2 -13 -8 -36 -12 -53 -4 -16 -7 -32 -8
-35 -1 -3 -5 -16 -9 -30 -5 -14 -10 -32 -10 -40 -5 -46 -105 -330 -162 -460
-56 -127 -156 -315 -232 -434 -42 -67 -78 -123 -81 -126 -4 -3 -38 -48 -77
-100 -39 -53 -77 -102 -85 -111 -8 -8 -43 -48 -79 -89 -97 -112 -251 -261
-360 -350 -30 -25 -56 -48 -58 -52 -2 -5 -10 -8 -17 -8 -7 0 -15 -4 -17 -9 -7
-18 -221 -164 -356 -244 -72 -42 -280 -146 -347 -174 -33 -13 -73 -30 -90 -37
-16 -8 -48 -19 -70 -26 -22 -7 -44 -15 -50 -19 -5 -3 -12 -6 -15 -7 -20 -4
-67 -18 -75 -23 -5 -3 -14 -6 -20 -8 -23 -5 -54 -13 -125 -33 -41 -12 -82 -23
-91 -25 -9 -2 -59 -12 -110 -23 -52 -11 -116 -23 -144 -27 -27 -3 -59 -8 -70
-10 -11 -3 -44 -7 -73 -9 -29 -3 -57 -8 -62 -11 -6 -4 -10 -1 -10 5 0 6 -5 8
-11 4 -6 -4 -30 -8 -53 -10 -57 -5 -399 -5 -466 0 -76 6 -169 16 -205 22 -16
3 -46 7 -65 10 -31 4 -250 48 -290 59 -55 14 -168 47 -180 52 -8 3 -19 7 -25
8 -5 2 -39 13 -75 25 -57 19 -87 31 -185 70 -75 30 -420 205 -435 220 -3 3
-50 34 -105 70 -55 36 -102 67 -105 70 -3 3 -21 17 -40 30 -19 13 -37 27 -40
30 -3 3 -39 32 -80 65 -85 68 -152 128 -254 231 -102 102 -165 173 -236 264
-19 25 -37 47 -40 50 -23 22 -184 256 -216 315 -6 11 -21 38 -34 60 -39 67
-115 218 -130 255 -8 19 -17 37 -20 40 -6 5 -19 37 -86 219 -45 123 -113 360
-129 451 -2 14 -7 39 -10 55 -3 17 -8 41 -10 55 -2 14 -6 34 -8 45 -3 11 -8
49 -12 85 -4 36 -9 79 -11 95 -22 171 -21 501 1 686 9 77 16 123 20 149 3 14
7 41 10 60 11 65 45 225 61 280 8 30 21 78 29 107 21 76 103 301 130 355 13
25 21 49 18 52 -4 3 -1 6 5 6 7 0 12 7 12 15 0 19 119 249 131 253 5 2 9 10 9
17 0 11 104 184 133 220 4 6 25 35 47 65 46 64 43 60 95 125 123 154 277 316
399 420 32 28 70 60 85 73 30 26 26 23 116 90 39 28 75 55 80 60 6 4 45 30 88
57 43 28 100 64 127 82 28 17 50 29 50 26 0 -3 8 1 18 9 28 25 335 173 377
183 13 3 38 13 92 36 23 11 50 21 60 22 10 2 26 7 36 10 9 4 25 10 35 14 9 3
22 7 27 9 6 1 50 14 99 28 49 15 91 24 94 21 2 -2 12 0 21 4 14 8 124 34 196
46 60 11 95 16 140 20 28 3 68 8 90 11 22 2 80 7 130 10 49 3 91 6 92 7 3 4
228 -2 318 -7z"/>
<path d="M2351 5476 c-1 -31 2 -56 6 -57 4 0 17 -2 28 -4 11 -1 43 -6 70 -10
28 -4 61 -8 73 -10 13 -2 52 -14 88 -26 156 -55 188 -161 183 -594 0 -60 0
-126 1 -145 1 -19 2 -42 2 -50 -1 -15 -1 -695 0 -715 0 -5 0 -57 -1 -115 0
-58 0 -114 0 -125 0 -18 0 -461 -1 -770 0 -185 -8 -448 -15 -480 -12 -59 -27
-110 -41 -137 -31 -60 -134 -104 -289 -124 -22 -3 -49 -7 -60 -9 -11 -2 -25
-4 -31 -4 -8 -1 -12 -22 -13 -56 l0 -55 751 2 752 3 1 48 c1 26 -2 50 -7 53
-5 3 -39 7 -76 10 -37 3 -78 7 -92 10 -14 2 -41 7 -60 10 -51 9 -135 42 -164
65 -42 33 -86 136 -90 209 -1 14 -4 30 -7 35 -3 6 -5 255 -5 555 l1 544 330 2
c182 1 341 4 355 7 14 3 52 8 85 11 65 7 105 13 145 22 35 8 60 13 95 20 74
13 280 94 296 117 3 5 8 7 10 6 6 -5 118 71 158 106 79 69 181 190 181 215 0
5 4 10 8 10 16 0 101 188 117 259 27 115 32 160 29 266 -1 66 -5 131 -8 145
-3 14 -8 34 -10 45 -50 238 -197 428 -426 552 -65 35 -236 105 -267 108 -12 2
-27 6 -34 10 -27 18 -225 60 -379 82 -19 3 -407 7 -861 10 l-826 4 -2 -55z
m1367 -160 c57 -3 107 -8 111 -10 3 -2 32 -7 64 -10 32 -4 69 -11 82 -16 14
-5 25 -7 25 -4 0 3 6 2 13 -3 6 -4 18 -8 26 -10 96 -14 292 -117 347 -182 12
-14 36 -42 52 -61 54 -61 110 -193 129 -306 10 -53 10 -307 0 -371 -10 -74
-58 -201 -100 -264 -34 -53 -110 -139 -122 -139 -3 0 -15 -9 -27 -19 -27 -26
-151 -91 -172 -91 -9 0 -16 -3 -16 -7 0 -12 -137 -44 -261 -62 -81 -11 -455
-6 -510 8 -3 0 -5 331 -5 734 1 680 2 735 18 760 22 32 45 45 95 53 21 3 39 7
40 8 3 2 51 0 211 -8z"/>
</g>
</svg>
